<svg width="100" height="100" viewBox="0 0 100 100" xmlns="http://www.w3.org/2000/svg">
  <!-- Microphone body -->
  <path d="M50 70c11 0 20-9 20-20V30c0-11-9-20-20-20S30 19 30 30v20c0 11 9 20 20 20z" fill="#000"/>
  
  <!-- Microphone stand -->
  <path d="M30 50v5c0 11.05 9 20 20 20s20-8.95 20-20v-5h-5v5c0 8.28-6.72 15-15 15s-15-6.72-15-15v-5h-5z" fill="#000"/>
  <rect x="45" y="75" width="10" height="10" fill="#000"/>
  <rect x="35" y="85" width="30" height="5" fill="#000"/>
  
  <!-- Mute slash - updated to be more prominent -->
  <path d="M20 20L80 80" stroke="#000" stroke-width="8" stroke-linecap="round"/>
  <!-- Add a white outline to make the slash stand out more -->
  <path d="M20 20L80 80" stroke="#fff" stroke-width="4" stroke-linecap="round"/>
</svg>